<svg width="36" height="9" viewBox="0 0 36 9" fill="none" xmlns="http://www.w3.org/2000/svg">
<path d="M5.437 5.983C5.509 6.205 5.605 6.361 5.725 6.451C5.845 6.541 6.037 6.598 6.301 6.622L6.319 6.658L6.256 7.027C6.184 7.027 6.052 7.021 5.86 7.009C5.674 7.003 5.488 7 5.302 7C5.014 7 4.735 7.012 4.465 7.036C4.201 7.06 4.033 7.078 3.961 7.09L3.934 7.027L3.97 6.676C4.276 6.652 4.486 6.616 4.6 6.568C4.714 6.52 4.771 6.442 4.771 6.334C4.771 6.214 4.744 6.07 4.69 5.902L4.393 4.921C4.249 4.915 3.937 4.912 3.457 4.912C3.169 4.912 2.842 4.936 2.476 4.984L2.143 5.92C2.089 6.082 2.062 6.199 2.062 6.271C2.062 6.403 2.104 6.499 2.188 6.559C2.272 6.613 2.41 6.64 2.602 6.64H3.115L3.133 6.676L3.079 7.063C3.007 7.057 2.842 7.045 2.584 7.027C2.326 7.009 2.074 7 1.828 7C1.606 7 1.399 7.003 1.207 7.009C1.021 7.015 0.898 7.021 0.838 7.027L0.91 6.604C1.078 6.586 1.213 6.529 1.315 6.433C1.417 6.331 1.516 6.157 1.612 5.911L3.367 1.312L3.934 1.159H4.006C4.042 1.303 4.132 1.636 4.276 2.158C4.426 2.68 4.606 3.298 4.816 4.012C5.032 4.726 5.239 5.383 5.437 5.983ZM3.43 4.543C3.64 4.543 3.919 4.528 4.267 4.498L3.556 2.14H3.493L2.638 4.543H3.43ZM6.96813 1.366C6.96813 1.042 6.85713 0.88 6.63513 0.88C6.58713 0.88 6.54513 0.883 6.50913 0.889C6.47313 0.895 6.44913 0.901 6.43713 0.907L6.41013 0.88L6.44613 0.582999C6.70413 0.547 6.97113 0.499 7.24713 0.439C7.52313 0.379 7.70013 0.34 7.77813 0.322L7.83213 0.439C7.79013 0.499 7.75113 0.805 7.71513 1.357C7.67913 1.903 7.64913 2.602 7.62513 3.454C7.89513 3.262 8.12613 3.109 8.31813 2.995C8.51613 2.881 8.64813 2.824 8.71413 2.824C9.05013 2.824 9.35013 2.905 9.61413 3.067C9.87813 3.229 10.0821 3.457 10.2261 3.751C10.3761 4.039 10.4511 4.372 10.4511 4.75C10.4511 5.182 10.3491 5.578 10.1451 5.938C9.94713 6.298 9.67713 6.583 9.33513 6.793C8.99313 7.003 8.61813 7.108 8.21013 7.108C7.95813 7.108 7.70013 7.09 7.43613 7.054C7.17813 7.024 7.04913 7.006 7.04913 7L6.96813 6.928V1.366ZM7.58013 6.424C7.68813 6.478 7.82613 6.523 7.99413 6.559C8.16213 6.595 8.31813 6.613 8.46213 6.613C8.86413 6.613 9.17913 6.478 9.40713 6.208C9.64113 5.932 9.75813 5.557 9.75813 5.083C9.75813 4.783 9.70413 4.507 9.59613 4.255C9.49413 4.003 9.35013 3.805 9.16413 3.661C8.98413 3.511 8.78613 3.436 8.57013 3.436C8.45013 3.436 8.29713 3.484 8.11113 3.58C7.92513 3.67 7.75713 3.784 7.60713 3.922L7.58013 6.424ZM11.0884 6.649C11.2624 6.631 11.3824 6.586 11.4484 6.514C11.5204 6.442 11.5564 6.322 11.5564 6.154V1.366C11.5564 1.204 11.5294 1.087 11.4754 1.015C11.4214 0.937 11.3374 0.898 11.2234 0.898H11.0344L10.9984 0.871L11.0344 0.582999C11.2924 0.547 11.5594 0.499 11.8354 0.439C12.1114 0.379 12.2884 0.34 12.3664 0.322L12.4204 0.439C12.3784 0.505 12.3364 0.823 12.2944 1.393C12.2584 1.957 12.2284 2.668 12.2044 3.526C12.8884 3.058 13.3384 2.824 13.5544 2.824C13.9444 2.824 14.2474 2.926 14.4634 3.13C14.6794 3.334 14.7874 3.619 14.7874 3.985C14.7874 4.105 14.7664 4.381 14.7244 4.813C14.6704 5.515 14.6434 5.95 14.6434 6.118C14.6434 6.292 14.6674 6.421 14.7154 6.505C14.7634 6.583 14.8444 6.622 14.9584 6.622C15.0244 6.622 15.0874 6.619 15.1474 6.613C15.2074 6.607 15.2494 6.604 15.2734 6.604L15.2914 6.64L15.2194 7.027C15.1654 7.021 15.0634 7.015 14.9134 7.009C14.7634 7.003 14.5984 7 14.4184 7C14.2624 7 14.0824 7.015 13.8784 7.045C13.6804 7.075 13.5514 7.096 13.4914 7.108L13.5274 6.739C13.7074 6.691 13.8364 6.622 13.9144 6.532C13.9924 6.436 14.0314 6.31 14.0314 6.154L14.0854 4.372C14.0854 4.072 14.0194 3.841 13.8874 3.679C13.7614 3.517 13.5784 3.436 13.3384 3.436C13.1344 3.436 12.9244 3.493 12.7084 3.607C12.4984 3.715 12.3274 3.823 12.1954 3.931C12.1774 4.621 12.1684 5.35 12.1684 6.118C12.1684 6.304 12.1924 6.436 12.2404 6.514C12.2884 6.586 12.3724 6.622 12.4924 6.622C12.5584 6.622 12.6214 6.619 12.6814 6.613C12.7414 6.607 12.7834 6.604 12.8074 6.604L12.8254 6.64L12.7444 7.027C12.6904 7.021 12.5854 7.015 12.4294 7.009C12.2734 7.003 12.1054 7 11.9254 7C11.7274 7 11.5444 7.003 11.3764 7.009C11.2084 7.015 11.0944 7.018 11.0344 7.018L11.0884 6.649ZM16.7781 1.582C16.6461 1.582 16.5381 1.54 16.4541 1.456C16.3761 1.372 16.3371 1.261 16.3371 1.123C16.3371 0.973 16.3881 0.847 16.4901 0.745C16.5921 0.643 16.7181 0.592 16.8681 0.592C16.9941 0.592 17.0991 0.637 17.1831 0.727C17.2671 0.811 17.3091 0.919 17.3091 1.051C17.3091 1.201 17.2581 1.327 17.1561 1.429C17.0541 1.531 16.9281 1.582 16.7781 1.582ZM16.0131 6.739C16.1931 6.691 16.3221 6.622 16.4001 6.532C16.4781 6.436 16.5171 6.31 16.5171 6.154V3.868C16.5171 3.544 16.4061 3.382 16.1841 3.382C16.1421 3.382 16.0971 3.388 16.0491 3.4C16.0011 3.406 15.9711 3.412 15.9591 3.418L15.9951 3.085C16.2471 3.049 16.5051 3.001 16.7691 2.941C17.0391 2.881 17.2131 2.842 17.2911 2.824L17.3361 2.932C17.2821 3.058 17.2341 3.445 17.1921 4.093C17.1501 4.735 17.1291 5.41 17.1291 6.118C17.1291 6.292 17.1531 6.421 17.2011 6.505C17.2491 6.583 17.3301 6.622 17.4441 6.622C17.5101 6.622 17.5731 6.619 17.6331 6.613C17.6931 6.607 17.7351 6.604 17.7591 6.604L17.7771 6.64L17.7051 7.027C17.6511 7.021 17.5491 7.015 17.3991 7.009C17.2491 7.003 17.0841 7 16.9041 7C16.7481 7 16.5681 7.015 16.3641 7.045C16.1661 7.075 16.0371 7.096 15.9771 7.108L16.0131 6.739ZM19.6601 7.108C19.4681 7.108 19.2911 7.093 19.1291 7.063C18.9731 7.039 18.8501 7.012 18.7601 6.982C18.6701 6.952 18.6131 6.931 18.5891 6.919L18.5621 6.856C18.5801 6.766 18.6011 6.58 18.6251 6.298C18.6491 6.016 18.6641 5.8 18.6701 5.65L18.9851 5.605C18.9851 6.001 19.0511 6.28 19.1831 6.442C19.3151 6.604 19.5401 6.685 19.8581 6.685C20.0861 6.685 20.2781 6.634 20.4341 6.532C20.5901 6.43 20.6681 6.304 20.6681 6.154C20.6681 6.004 20.5961 5.869 20.4521 5.749C20.3141 5.623 20.0381 5.449 19.6241 5.227C19.2821 5.053 19.0331 4.879 18.8771 4.705C18.7211 4.525 18.6431 4.327 18.6431 4.111C18.6431 3.871 18.7151 3.652 18.8591 3.454C19.0031 3.256 19.2011 3.103 19.4531 2.995C19.7051 2.881 19.9871 2.824 20.2991 2.824C20.4431 2.824 20.5811 2.836 20.7131 2.86C20.8451 2.878 20.9531 2.899 21.0371 2.923C21.1211 2.947 21.1751 2.962 21.1991 2.968L21.2171 3.013C21.2051 3.073 21.1781 3.211 21.1361 3.427C21.0941 3.637 21.0641 3.865 21.0461 4.111L20.7131 4.138C20.7131 4.12 20.7161 4.084 20.7221 4.03C20.7281 3.976 20.7311 3.925 20.7311 3.877C20.7311 3.661 20.6711 3.505 20.5511 3.409C20.4371 3.307 20.2511 3.256 19.9931 3.256C19.7891 3.256 19.6151 3.304 19.4711 3.4C19.3331 3.496 19.2641 3.613 19.2641 3.751C19.2641 3.895 19.3241 4.03 19.4441 4.156C19.5701 4.282 19.7711 4.417 20.0471 4.561C20.5331 4.819 20.8631 5.035 21.0371 5.209C21.2171 5.383 21.3071 5.584 21.3071 5.812C21.3071 6.04 21.2291 6.253 21.0731 6.451C20.9231 6.649 20.7221 6.808 20.4701 6.928C20.2181 7.048 19.9481 7.108 19.6601 7.108ZM22.0572 6.649C22.2312 6.631 22.3512 6.586 22.4172 6.514C22.4892 6.442 22.5252 6.322 22.5252 6.154V1.366C22.5252 1.204 22.4982 1.087 22.4442 1.015C22.3902 0.937 22.3062 0.898 22.1922 0.898H22.0032L21.9672 0.871L22.0032 0.582999C22.2612 0.547 22.5282 0.499 22.8042 0.439C23.0802 0.379 23.2572 0.34 23.3352 0.322L23.3892 0.439C23.3472 0.505 23.3052 0.823 23.2632 1.393C23.2272 1.957 23.1972 2.668 23.1732 3.526C23.8572 3.058 24.3072 2.824 24.5232 2.824C24.9132 2.824 25.2162 2.926 25.4322 3.13C25.6482 3.334 25.7562 3.619 25.7562 3.985C25.7562 4.105 25.7352 4.381 25.6932 4.813C25.6392 5.515 25.6122 5.95 25.6122 6.118C25.6122 6.292 25.6362 6.421 25.6842 6.505C25.7322 6.583 25.8132 6.622 25.9272 6.622C25.9932 6.622 26.0562 6.619 26.1162 6.613C26.1762 6.607 26.2182 6.604 26.2422 6.604L26.2602 6.64L26.1882 7.027C26.1342 7.021 26.0322 7.015 25.8822 7.009C25.7322 7.003 25.5672 7 25.3872 7C25.2312 7 25.0512 7.015 24.8472 7.045C24.6492 7.075 24.5202 7.096 24.4602 7.108L24.4962 6.739C24.6762 6.691 24.8052 6.622 24.8832 6.532C24.9612 6.436 25.0002 6.31 25.0002 6.154L25.0542 4.372C25.0542 4.072 24.9882 3.841 24.8562 3.679C24.7302 3.517 24.5472 3.436 24.3072 3.436C24.1032 3.436 23.8932 3.493 23.6772 3.607C23.4672 3.715 23.2962 3.823 23.1642 3.931C23.1462 4.621 23.1372 5.35 23.1372 6.118C23.1372 6.304 23.1612 6.436 23.2092 6.514C23.2572 6.586 23.3412 6.622 23.4612 6.622C23.5272 6.622 23.5902 6.619 23.6502 6.613C23.7102 6.607 23.7522 6.604 23.7762 6.604L23.7942 6.64L23.7132 7.027C23.6592 7.021 23.5542 7.015 23.3982 7.009C23.2422 7.003 23.0742 7 22.8942 7C22.6962 7 22.5132 7.003 22.3452 7.009C22.1772 7.015 22.0632 7.018 22.0032 7.018L22.0572 6.649ZM27.5488 4.822C27.5488 5.326 27.6688 5.731 27.9088 6.037C28.1548 6.343 28.4788 6.496 28.8808 6.496C29.0488 6.496 29.2138 6.475 29.3758 6.433C29.5378 6.391 29.6728 6.349 29.7808 6.307C29.8888 6.259 29.9578 6.229 29.9878 6.217L30.0418 6.235L30.1408 6.496C30.0988 6.526 29.9998 6.592 29.8438 6.694C29.6938 6.79 29.5168 6.883 29.3128 6.973C29.1088 7.063 28.9258 7.108 28.7638 7.108C28.3918 7.108 28.0618 7.027 27.7738 6.865C27.4858 6.697 27.2638 6.463 27.1078 6.163C26.9518 5.857 26.8738 5.509 26.8738 5.119C26.8738 4.717 26.9638 4.339 27.1438 3.985C27.3298 3.631 27.5758 3.349 27.8818 3.139C28.1878 2.929 28.5148 2.824 28.8628 2.824C29.3008 2.824 29.6338 2.935 29.8618 3.157C30.0898 3.379 30.2038 3.703 30.2038 4.129C30.2038 4.225 30.1948 4.318 30.1768 4.408C30.1648 4.492 30.1558 4.546 30.1498 4.57L30.0328 4.678H27.5488V4.822ZM29.2138 4.264C29.3038 4.252 29.3638 4.231 29.3938 4.201C29.4238 4.171 29.4388 4.111 29.4388 4.021C29.4388 3.781 29.3728 3.598 29.2408 3.472C29.1148 3.346 28.9318 3.283 28.6918 3.283C28.4098 3.283 28.1668 3.379 27.9628 3.571C27.7648 3.763 27.6388 4.021 27.5848 4.345L29.2138 4.264ZM30.89 6.685C31.046 6.661 31.157 6.619 31.223 6.559C31.289 6.493 31.328 6.409 31.34 6.307C31.358 6.205 31.367 6.031 31.367 5.785V1.366C31.367 1.042 31.256 0.88 31.034 0.88C30.992 0.88 30.947 0.886 30.899 0.898C30.851 0.904 30.821 0.91 30.809 0.915999C30.809 0.88 30.815 0.826 30.827 0.754L30.845 0.582999C31.103 0.547 31.37 0.499 31.646 0.439C31.922 0.379 32.099 0.34 32.177 0.322L32.231 0.439C32.165 0.541 32.105 1.177 32.051 2.347C32.003 3.517 31.979 4.774 31.979 6.118C31.979 6.304 32.003 6.436 32.051 6.514C32.099 6.586 32.183 6.622 32.303 6.622C32.369 6.622 32.432 6.619 32.492 6.613C32.552 6.607 32.594 6.604 32.618 6.604L32.636 6.64L32.555 7.027C32.501 7.021 32.396 7.015 32.24 7.009C32.084 7.003 31.916 7 31.736 7C31.58 7 31.406 7.006 31.214 7.018C31.028 7.036 30.905 7.048 30.845 7.054L30.89 6.685ZM33.32 3.724C33.404 3.646 33.461 3.586 33.491 3.544C33.521 3.496 33.536 3.451 33.536 3.409C33.536 3.343 33.497 3.295 33.419 3.265C33.341 3.235 33.215 3.22 33.041 3.22L33.014 3.175L33.095 2.914C33.155 2.914 33.269 2.917 33.437 2.923C33.611 2.929 33.791 2.932 33.977 2.932C34.121 2.932 34.286 2.926 34.472 2.914C34.658 2.896 34.778 2.884 34.832 2.878L34.859 2.923L34.787 3.202C34.541 3.274 34.292 3.412 34.04 3.616C33.794 3.82 33.497 4.096 33.149 4.444C33.149 4.444 33.056 4.537 32.87 4.723L33.815 5.938C34.019 6.202 34.205 6.391 34.373 6.505C34.541 6.619 34.718 6.676 34.904 6.676L34.931 6.721L34.877 6.982C34.823 7 34.712 7.027 34.544 7.063C34.376 7.105 34.265 7.126 34.211 7.126C34.121 7.126 34.016 7.096 33.896 7.036C33.8 6.988 33.704 6.913 33.608 6.811C33.518 6.709 33.404 6.559 33.266 6.361L32.204 4.858L32.222 4.732L33.32 3.724Z" fill="#FEF5E4"/>
<line x1="19" y1="8.75" x2="35" y2="8.75" stroke="#FEF5E4" stroke-width="0.5"/>
</svg>
