<svg width="203" height="77" viewBox="0 0 203 77" fill="none" xmlns="http://www.w3.org/2000/svg">
<path d="M14.2727 48.7045C12.0606 48.7045 10.0682 48.3106 8.29545 47.5227C6.53788 46.7197 5.14394 45.5379 4.11364 43.9773C3.09848 42.4167 2.59091 40.4924 2.59091 38.2045C2.59091 36.2348 2.95455 34.6061 3.68182 33.3182C4.40909 32.0303 5.40152 31 6.65909 30.2273C7.91667 29.4545 9.33333 28.8712 10.9091 28.4773C12.5 28.0682 14.1439 27.7727 15.8409 27.5909C17.8864 27.3788 19.5455 27.1894 20.8182 27.0227C22.0909 26.8409 23.0152 26.5682 23.5909 26.2045C24.1818 25.8258 24.4773 25.2424 24.4773 24.4545V24.3182C24.4773 22.6061 23.9697 21.2803 22.9545 20.3409C21.9394 19.4015 20.4773 18.9318 18.5682 18.9318C16.553 18.9318 14.9545 19.3712 13.7727 20.25C12.6061 21.1288 11.8182 22.1667 11.4091 23.3636L3.72727 22.2727C4.33333 20.1515 5.33333 18.3788 6.72727 16.9545C8.12121 15.5151 9.82576 14.4394 11.8409 13.7273C13.8561 13 16.0833 12.6364 18.5227 12.6364C20.2045 12.6364 21.8788 12.8333 23.5455 13.2273C25.2121 13.6212 26.7348 14.2727 28.1136 15.1818C29.4924 16.0758 30.5985 17.2955 31.4318 18.8409C32.2803 20.3864 32.7045 22.3182 32.7045 24.6364V48H24.7955V43.2045H24.5227C24.0227 44.1742 23.3182 45.0833 22.4091 45.9318C21.5152 46.7652 20.3864 47.4394 19.0227 47.9545C17.6742 48.4545 16.0909 48.7045 14.2727 48.7045ZM16.4091 42.6591C18.0606 42.6591 19.4924 42.3333 20.7045 41.6818C21.9167 41.0152 22.8485 40.1364 23.5 39.0455C24.1667 37.9545 24.5 36.7652 24.5 35.4773V31.3636C24.2424 31.5758 23.803 31.7727 23.1818 31.9545C22.5758 32.1364 21.8939 32.2955 21.1364 32.4318C20.3788 32.5682 19.6288 32.6894 18.8864 32.7955C18.1439 32.9015 17.5 32.9924 16.9545 33.0682C15.7273 33.2348 14.6288 33.5076 13.6591 33.8864C12.6894 34.2652 11.9242 34.7955 11.3636 35.4773C10.803 36.1439 10.5227 37.0076 10.5227 38.0682C10.5227 39.5833 11.0758 40.7273 12.1818 41.5C13.2879 42.2727 14.697 42.6591 16.4091 42.6591ZM40.9773 61.0909V13.0909H49.0682V18.8636H49.5455C49.9697 18.0152 50.5682 17.1136 51.3409 16.1591C52.1136 15.1894 53.1591 14.3636 54.4773 13.6818C55.7955 12.9848 57.4773 12.6364 59.5227 12.6364C62.2197 12.6364 64.6515 13.3258 66.8182 14.7045C69 16.0682 70.7273 18.0909 72 20.7727C73.2879 23.4394 73.9318 26.7121 73.9318 30.5909C73.9318 34.4242 73.303 37.6818 72.0455 40.3636C70.7879 43.0455 69.0758 45.0909 66.9091 46.5C64.7424 47.9091 62.2879 48.6136 59.5455 48.6136C57.5455 48.6136 55.8864 48.2803 54.5682 47.6136C53.25 46.947 52.1894 46.1439 51.3864 45.2045C50.5985 44.25 49.9848 43.3485 49.5455 42.5H49.2045V61.0909H40.9773ZM49.0455 30.5455C49.0455 32.803 49.3636 34.7803 50 36.4773C50.6515 38.1742 51.5833 39.5 52.7955 40.4545C54.0227 41.3939 55.5076 41.8636 57.25 41.8636C59.0682 41.8636 60.5909 41.3788 61.8182 40.4091C63.0455 39.4242 63.9697 38.0833 64.5909 36.3864C65.2273 34.6742 65.5455 32.7273 65.5455 30.5455C65.5455 28.3788 65.2348 26.4545 64.6136 24.7727C63.9924 23.0909 63.0682 21.7727 61.8409 20.8182C60.6136 19.8636 59.0833 19.3864 57.25 19.3864C55.4924 19.3864 54 19.8485 52.7727 20.7727C51.5455 21.697 50.6136 22.9924 49.9773 24.6591C49.3561 26.3258 49.0455 28.2879 49.0455 30.5455ZM91.0227 48.7045C88.8106 48.7045 86.8182 48.3106 85.0455 47.5227C83.2879 46.7197 81.8939 45.5379 80.8636 43.9773C79.8485 42.4167 79.3409 40.4924 79.3409 38.2045C79.3409 36.2348 79.7045 34.6061 80.4318 33.3182C81.1591 32.0303 82.1515 31 83.4091 30.2273C84.6667 29.4545 86.0833 28.8712 87.6591 28.4773C89.25 28.0682 90.8939 27.7727 92.5909 27.5909C94.6364 27.3788 96.2955 27.1894 97.5682 27.0227C98.8409 26.8409 99.7652 26.5682 100.341 26.2045C100.932 25.8258 101.227 25.2424 101.227 24.4545V24.3182C101.227 22.6061 100.72 21.2803 99.7045 20.3409C98.6894 19.4015 97.2273 18.9318 95.3182 18.9318C93.303 18.9318 91.7045 19.3712 90.5227 20.25C89.3561 21.1288 88.5682 22.1667 88.1591 23.3636L80.4773 22.2727C81.0833 20.1515 82.0833 18.3788 83.4773 16.9545C84.8712 15.5151 86.5758 14.4394 88.5909 13.7273C90.6061 13 92.8333 12.6364 95.2727 12.6364C96.9545 12.6364 98.6288 12.8333 100.295 13.2273C101.962 13.6212 103.485 14.2727 104.864 15.1818C106.242 16.0758 107.348 17.2955 108.182 18.8409C109.03 20.3864 109.455 22.3182 109.455 24.6364V48H101.545V43.2045H101.273C100.773 44.1742 100.068 45.0833 99.1591 45.9318C98.2652 46.7652 97.1364 47.4394 95.7727 47.9545C94.4242 48.4545 92.8409 48.7045 91.0227 48.7045ZM93.1591 42.6591C94.8106 42.6591 96.2424 42.3333 97.4545 41.6818C98.6667 41.0152 99.5985 40.1364 100.25 39.0455C100.917 37.9545 101.25 36.7652 101.25 35.4773V31.3636C100.992 31.5758 100.553 31.7727 99.9318 31.9545C99.3258 32.1364 98.6439 32.2955 97.8864 32.4318C97.1288 32.5682 96.3788 32.6894 95.6364 32.7955C94.8939 32.9015 94.25 32.9924 93.7045 33.0682C92.4773 33.2348 91.3788 33.5076 90.4091 33.8864C89.4394 34.2652 88.6742 34.7955 88.1136 35.4773C87.553 36.1439 87.2727 37.0076 87.2727 38.0682C87.2727 39.5833 87.8258 40.7273 88.9318 41.5C90.0379 42.2727 91.447 42.6591 93.1591 42.6591ZM132.591 48.7273C129.318 48.7273 126.5 47.9545 124.136 46.4091C121.773 44.8636 119.955 42.7348 118.682 40.0227C117.409 37.3106 116.773 34.2121 116.773 30.7273C116.773 27.1818 117.424 24.053 118.727 21.3409C120.045 18.6136 121.879 16.4848 124.227 14.9545C126.591 13.4091 129.348 12.6364 132.5 12.6364C134.955 12.6364 137.167 13.0909 139.136 14C141.106 14.9091 142.72 16.1818 143.977 17.8182C145.235 19.4545 146.015 21.3636 146.318 23.5455H140.955C140.545 21.9545 139.636 20.5455 138.227 19.3182C136.833 18.0758 134.955 17.4545 132.591 17.4545C130.5 17.4545 128.667 18 127.091 19.0909C125.53 20.1667 124.311 21.6894 123.432 23.6591C122.568 25.6136 122.136 27.9091 122.136 30.5455C122.136 33.2424 122.561 35.5909 123.409 37.5909C124.273 39.5909 125.485 41.1439 127.045 42.25C128.621 43.3561 130.47 43.9091 132.591 43.9091C133.985 43.9091 135.25 43.6667 136.386 43.1818C137.523 42.697 138.485 42 139.273 41.0909C140.061 40.1818 140.621 39.0909 140.955 37.8182H146.318C146.015 39.8788 145.265 41.7348 144.068 43.3864C142.886 45.0227 141.318 46.3258 139.364 47.2955C137.424 48.25 135.167 48.7273 132.591 48.7273ZM159.523 27V48H154.159V1.45454H159.523V18.5455H159.977C160.795 16.7424 162.023 15.3106 163.659 14.25C165.311 13.1742 167.508 12.6364 170.25 12.6364C172.629 12.6364 174.712 13.1136 176.5 14.0682C178.288 15.0076 179.674 16.4545 180.659 18.4091C181.659 20.3485 182.159 22.8182 182.159 25.8182V48H176.795V26.1818C176.795 23.4091 176.076 21.2652 174.636 19.75C173.212 18.2197 171.235 17.4545 168.705 17.4545C166.947 17.4545 165.371 17.8258 163.977 18.5682C162.598 19.3106 161.508 20.3939 160.705 21.8182C159.917 23.2424 159.523 24.9697 159.523 27ZM191.972 48V13.0909H197.335V48H191.972ZM194.699 7.27273C193.653 7.27273 192.752 6.91667 191.994 6.20454C191.252 5.49242 190.881 4.63636 190.881 3.63636C190.881 2.63636 191.252 1.7803 191.994 1.06818C192.752 0.35606 193.653 0 194.699 0C195.744 0 196.638 0.35606 197.381 1.06818C198.138 1.7803 198.517 2.63636 198.517 3.63636C198.517 4.63636 198.138 5.49242 197.381 6.20454C196.638 6.91667 195.744 7.27273 194.699 7.27273Z" fill="black"/>
<path d="M69.59 63.032L69.78 62.12H73.409V62.69L71.965 63.26L69.609 72H68.545L65.866 65.027L63.624 72H62.598L59.273 63.222L57.886 62.975L58.076 62.12H62.427V62.69L60.945 63.165L63.358 69.416L65.695 62.12H66.474L69.248 69.34L70.901 63.222L69.59 63.032ZM75.6712 66.908C75.6712 67.744 75.8169 68.466 76.1082 69.074C76.4122 69.6693 76.8175 70.1317 77.3242 70.461C77.8435 70.7777 78.4199 70.936 79.0532 70.936C79.9525 70.936 80.8835 70.6257 81.8462 70.005L82.2642 70.727C81.6435 71.2083 81.0039 71.5693 80.3452 71.81C79.6865 72.0507 79.0405 72.171 78.4072 72.171C77.5712 72.171 76.7985 71.9747 76.0892 71.582C75.3925 71.1767 74.8289 70.5877 74.3982 69.815C73.9802 69.0423 73.7712 68.1113 73.7712 67.022C73.7712 66.186 73.9042 65.4513 74.1702 64.818C74.4362 64.1847 74.7909 63.659 75.2342 63.241C75.6775 62.8103 76.1715 62.4937 76.7162 62.291C77.2609 62.0757 77.8055 61.968 78.3502 61.968C79.1989 61.968 79.8892 62.1137 80.4212 62.405C80.9532 62.6837 81.3649 63.0637 81.6562 63.545C81.9475 64.0263 82.1439 64.5583 82.2452 65.141C82.3592 65.7237 82.4162 66.3127 82.4162 66.908H75.6712ZM80.5162 65.882C80.5162 65.2107 80.4085 64.666 80.1932 64.248C79.9905 63.8173 79.7182 63.5007 79.3762 63.298C79.0342 63.0953 78.6732 62.994 78.2932 62.994C77.9005 62.994 77.5079 63.108 77.1152 63.336C76.7352 63.5513 76.4122 63.8743 76.1462 64.305C75.8929 64.7357 75.7535 65.2613 75.7282 65.882H80.5162ZM84.0855 59.346L82.5085 59.042L82.4135 58.206L85.7955 57.75V63.203C86.2768 62.7723 86.7708 62.462 87.2775 62.272C87.7968 62.0693 88.3035 61.968 88.7975 61.968C89.5195 61.968 90.1845 62.158 90.7925 62.538C91.4005 62.918 91.8882 63.4627 92.2555 64.172C92.6355 64.8687 92.8255 65.6983 92.8255 66.661C92.8255 67.9403 92.5848 68.998 92.1035 69.834C91.6222 70.6573 90.9762 71.2653 90.1655 71.658C89.3675 72.0507 88.4682 72.247 87.4675 72.247C86.9355 72.247 86.3592 72.1837 85.7385 72.057C85.1305 71.943 84.5795 71.7593 84.0855 71.506V59.346ZM85.7955 70.651C86.5302 71.0183 87.2078 71.202 87.8285 71.202C88.4745 71.202 89.0255 71.031 89.4815 70.689C89.9502 70.347 90.3112 69.8783 90.5645 69.283C90.8178 68.675 90.9445 67.9783 90.9445 67.193C90.9445 66.0277 90.6975 65.1093 90.2035 64.438C89.7095 63.7667 89.0445 63.431 88.2085 63.431C87.4865 63.431 86.6822 63.7097 85.7955 64.267V70.651ZM105.255 70.689C104.964 71.145 104.54 71.5187 103.982 71.81C103.425 72.0887 102.861 72.228 102.291 72.228C101.734 72.228 101.297 72.114 100.98 71.886C100.676 71.6453 100.461 71.3223 100.334 70.917C100.208 70.5117 100.144 70.0557 100.144 69.549V63.184H98.6432V62.519L100.239 61.949L100.904 59.84H101.854V62.12H104.894V63.165H101.854V69.093C101.854 69.7897 101.918 70.2647 102.044 70.518C102.171 70.7713 102.475 70.898 102.956 70.898C103.248 70.898 103.545 70.8473 103.849 70.746C104.153 70.6447 104.502 70.4737 104.894 70.233L105.255 70.689ZM107.752 66.908C107.752 67.744 107.898 68.466 108.189 69.074C108.493 69.6693 108.899 70.1317 109.405 70.461C109.925 70.7777 110.501 70.936 111.134 70.936C112.034 70.936 112.965 70.6257 113.927 70.005L114.345 70.727C113.725 71.2083 113.085 71.5693 112.426 71.81C111.768 72.0507 111.122 72.171 110.488 72.171C109.652 72.171 108.88 71.9747 108.17 71.582C107.474 71.1767 106.91 70.5877 106.479 69.815C106.061 69.0423 105.852 68.1113 105.852 67.022C105.852 66.186 105.985 65.4513 106.251 64.818C106.517 64.1847 106.872 63.659 107.315 63.241C107.759 62.8103 108.253 62.4937 108.797 62.291C109.342 62.0757 109.887 61.968 110.431 61.968C111.28 61.968 111.97 62.1137 112.502 62.405C113.034 62.6837 113.446 63.0637 113.737 63.545C114.029 64.0263 114.225 64.5583 114.326 65.141C114.44 65.7237 114.497 66.3127 114.497 66.908H107.752ZM112.597 65.882C112.597 65.2107 112.49 64.666 112.274 64.248C112.072 63.8173 111.799 63.5007 111.457 63.298C111.115 63.0953 110.754 62.994 110.374 62.994C109.982 62.994 109.589 63.108 109.196 63.336C108.816 63.5513 108.493 63.8743 108.227 64.305C107.974 64.7357 107.835 65.2613 107.809 65.882H112.597ZM122.594 63.317C122.024 63.1017 121.53 62.994 121.112 62.994C120.479 62.994 119.922 63.1713 119.44 63.526C118.959 63.868 118.579 64.3367 118.3 64.932C118.034 65.5147 117.901 66.1797 117.901 66.927C117.901 67.5983 118.015 68.2443 118.243 68.865C118.471 69.4857 118.826 69.9923 119.307 70.385C119.789 70.765 120.397 70.955 121.131 70.955C121.562 70.955 122.031 70.8727 122.537 70.708C123.057 70.5433 123.513 70.3153 123.905 70.024L124.323 70.746C123.817 71.2273 123.259 71.5947 122.651 71.848C122.043 72.0887 121.416 72.209 120.77 72.209C119.909 72.209 119.117 72.0127 118.395 71.62C117.673 71.2147 117.091 70.6257 116.647 69.853C116.217 69.0803 116.001 68.1493 116.001 67.06C116.001 65.9707 116.242 65.046 116.723 64.286C117.205 63.526 117.832 62.9497 118.604 62.557C119.377 62.1517 120.194 61.949 121.055 61.949C122.119 61.949 123.126 62.2467 124.076 62.842V65.369L123.126 65.559L122.594 63.317ZM128.556 63.545C128.986 63.0257 129.512 62.633 130.133 62.367C130.753 62.0883 131.323 61.949 131.843 61.949C132.755 61.949 133.458 62.2277 133.952 62.785C134.458 63.3423 134.712 64.229 134.712 65.445L134.731 70.822L136.251 71.145L136.061 72H131.558V71.43L133.021 70.86V65.825C133.021 65.1917 132.951 64.7103 132.812 64.381C132.685 64.039 132.482 63.811 132.204 63.697C131.938 63.5703 131.602 63.507 131.197 63.507C130.69 63.507 130.183 63.5957 129.677 63.773C129.183 63.9503 128.809 64.1847 128.556 64.476V70.822L129.981 71.088L129.791 72H125.174V71.43L126.846 70.86V59.289L125.269 58.985L125.174 58.206L128.556 57.75V63.545ZM145.703 70.822L147.223 71.145L147.033 72H142.53V71.43L143.993 70.86V65.825C143.993 65.1917 143.924 64.7103 143.784 64.381C143.658 64.039 143.455 63.811 143.176 63.697C142.91 63.5703 142.575 63.507 142.169 63.507C141.663 63.507 141.156 63.5957 140.649 63.773C140.155 63.9503 139.782 64.1847 139.528 64.476V70.822L140.972 71.088L140.782 72H136.184V71.43L137.837 70.86V63.583L136.26 63.279L136.165 62.443L139.528 61.987V63.545C139.959 63.0257 140.485 62.633 141.105 62.367C141.726 62.0883 142.296 61.949 142.815 61.949C143.727 61.949 144.43 62.2277 144.924 62.785C145.418 63.3423 145.678 64.229 145.703 65.445V70.822ZM152.535 61.93C153.396 61.93 154.137 62.0757 154.758 62.367C155.391 62.6457 155.917 63.0257 156.335 63.507C156.753 63.9883 157.063 64.533 157.266 65.141C157.469 65.7363 157.57 66.3507 157.57 66.984C157.57 67.63 157.462 68.2633 157.247 68.884C157.044 69.492 156.74 70.043 156.335 70.537C155.942 71.031 155.448 71.4237 154.853 71.715C154.27 72.0063 153.599 72.152 152.839 72.152C151.99 72.152 151.249 72.0127 150.616 71.734C149.983 71.4427 149.457 71.0563 149.039 70.575C148.621 70.0937 148.311 69.5553 148.108 68.96C147.905 68.352 147.804 67.7313 147.804 67.098C147.804 66.452 147.905 65.825 148.108 65.217C148.323 64.5963 148.627 64.039 149.02 63.545C149.425 63.051 149.919 62.6583 150.502 62.367C151.097 62.0757 151.775 61.93 152.535 61.93ZM152.82 71.107C153.504 71.107 154.055 70.917 154.473 70.537C154.891 70.157 155.195 69.6693 155.385 69.074C155.575 68.4787 155.67 67.8517 155.67 67.193C155.67 66.4963 155.575 65.825 155.385 65.179C155.195 64.533 154.872 64.0073 154.416 63.602C153.973 63.184 153.352 62.975 152.554 62.975C151.883 62.975 151.332 63.165 150.901 63.545C150.483 63.925 150.179 64.4127 149.989 65.008C149.799 65.6033 149.704 66.2303 149.704 66.889C149.704 67.5857 149.799 68.257 149.989 68.903C150.179 69.549 150.496 70.081 150.939 70.499C151.395 70.9043 152.022 71.107 152.82 71.107ZM161.713 70.822L163.328 71.088L163.138 72H158.331V71.43L160.003 70.86V59.27L158.464 58.985L158.369 58.206L161.713 57.75V70.822ZM168.789 61.93C169.65 61.93 170.391 62.0757 171.012 62.367C171.645 62.6457 172.171 63.0257 172.589 63.507C173.007 63.9883 173.317 64.533 173.52 65.141C173.723 65.7363 173.824 66.3507 173.824 66.984C173.824 67.63 173.716 68.2633 173.501 68.884C173.298 69.492 172.994 70.043 172.589 70.537C172.196 71.031 171.702 71.4237 171.107 71.715C170.524 72.0063 169.853 72.152 169.093 72.152C168.244 72.152 167.503 72.0127 166.87 71.734C166.237 71.4427 165.711 71.0563 165.293 70.575C164.875 70.0937 164.565 69.5553 164.362 68.96C164.159 68.352 164.058 67.7313 164.058 67.098C164.058 66.452 164.159 65.825 164.362 65.217C164.577 64.5963 164.881 64.039 165.274 63.545C165.679 63.051 166.173 62.6583 166.756 62.367C167.351 62.0757 168.029 61.93 168.789 61.93ZM169.074 71.107C169.758 71.107 170.309 70.917 170.727 70.537C171.145 70.157 171.449 69.6693 171.639 69.074C171.829 68.4787 171.924 67.8517 171.924 67.193C171.924 66.4963 171.829 65.825 171.639 65.179C171.449 64.533 171.126 64.0073 170.67 63.602C170.227 63.184 169.606 62.975 168.808 62.975C168.137 62.975 167.586 63.165 167.155 63.545C166.737 63.925 166.433 64.4127 166.243 65.008C166.053 65.6033 165.958 66.2303 165.958 66.889C165.958 67.5857 166.053 68.257 166.243 68.903C166.433 69.549 166.75 70.081 167.193 70.499C167.649 70.9043 168.276 71.107 169.074 71.107ZM179.615 68.941C179.412 68.941 179.209 68.9347 179.007 68.922C178.804 68.8967 178.601 68.8587 178.399 68.808C178.183 68.9727 178 69.1627 177.848 69.378C177.696 69.5933 177.62 69.8213 177.62 70.062C177.62 70.2773 177.721 70.461 177.924 70.613C178.126 70.7523 178.437 70.8283 178.855 70.841H182.427C183.237 70.8663 183.814 71.0753 184.156 71.468C184.51 71.848 184.688 72.304 184.688 72.836C184.688 73.444 184.517 73.9887 184.175 74.47C183.845 74.9513 183.402 75.3567 182.845 75.686C182.3 76.0153 181.692 76.2623 181.021 76.427C180.349 76.6043 179.678 76.693 179.007 76.693C177.867 76.693 176.948 76.484 176.252 76.066C175.568 75.6607 175.226 75.0273 175.226 74.166C175.226 73.6847 175.371 73.2603 175.663 72.893C175.967 72.5383 176.372 72.1963 176.879 71.867C176.372 71.5123 176.119 71.031 176.119 70.423C176.119 70.0937 176.233 69.7517 176.461 69.397C176.701 69.0423 177.037 68.7383 177.468 68.485C176.91 68.2317 176.454 67.8707 176.1 67.402C175.745 66.9333 175.568 66.319 175.568 65.559C175.568 64.6977 175.751 64.001 176.119 63.469C176.486 62.937 176.974 62.5507 177.582 62.31C178.202 62.0567 178.874 61.93 179.596 61.93C180.09 61.93 180.552 61.9933 180.983 62.12C181.426 62.2467 181.812 62.443 182.142 62.709C182.319 62.709 182.585 62.7027 182.94 62.69C183.294 62.6647 183.655 62.6393 184.023 62.614C184.238 62.6013 184.453 62.5887 184.669 62.576C184.897 62.5507 185.131 62.5317 185.372 62.519V63.83L182.997 63.773C183.123 64.0263 183.212 64.305 183.263 64.609C183.313 64.9003 183.339 65.217 183.339 65.559C183.339 66.395 183.161 67.06 182.807 67.554C182.452 68.048 181.99 68.4027 181.42 68.618C180.85 68.8333 180.248 68.941 179.615 68.941ZM179.653 67.896C180.286 67.896 180.742 67.6743 181.021 67.231C181.299 66.7877 181.439 66.2303 181.439 65.559C181.439 64.8497 181.28 64.2353 180.964 63.716C180.647 63.1967 180.147 62.937 179.463 62.937C178.804 62.937 178.304 63.1777 177.962 63.659C177.62 64.1403 177.449 64.7547 177.449 65.502C177.449 66.186 177.62 66.756 177.962 67.212C178.316 67.668 178.88 67.896 179.653 67.896ZM179.254 72.456C178.608 72.456 178.057 72.3737 177.601 72.209C177.17 72.7157 176.955 73.197 176.955 73.653C176.955 74.3877 177.221 74.8943 177.753 75.173C178.297 75.4517 178.988 75.591 179.824 75.591C180.419 75.591 180.989 75.496 181.534 75.306C182.078 75.116 182.522 74.8563 182.864 74.527C183.206 74.2103 183.377 73.8683 183.377 73.501C183.377 73.1337 183.25 72.8677 182.997 72.703C182.743 72.5383 182.249 72.456 181.515 72.456H179.254ZM190.522 72.798C190.586 72.6333 190.655 72.456 190.731 72.266C190.82 72.076 190.902 71.8797 190.978 71.677L187.558 63.298L186.247 62.975L186.437 62.12H190.503V62.69L189.363 63.165L191.719 68.998L191.833 69.53L194.455 63.222L193.296 63.032L193.486 62.12H196.868V62.69L195.633 63.241C195.038 64.723 194.474 66.053 193.942 67.231C193.423 68.3963 192.98 69.4413 192.612 70.366C192.27 71.2273 191.96 72 191.681 72.684C191.403 73.3807 191.124 73.9697 190.845 74.451C190.567 74.9577 190.187 75.401 189.705 75.781C189.237 76.1737 188.629 76.37 187.881 76.37C187.489 76.37 187.083 76.3067 186.665 76.18L187.197 74.603C187.4 74.6537 187.596 74.6853 187.786 74.698C187.976 74.7233 188.154 74.736 188.318 74.736C188.774 74.736 189.123 74.6537 189.363 74.489C189.617 74.3243 189.819 74.0963 189.971 73.805C190.136 73.5137 190.32 73.178 190.522 72.798Z" fill="black"/>
</svg>
