<svg width="151" height="77" viewBox="0 0 151 77" fill="none" xmlns="http://www.w3.org/2000/svg">
<path d="M6.20703 72.3924C6.74841 72.6489 7.80476 73.4899 8.46497 73.9175C13.7071 77.3097 20.4545 77.0104 25.723 73.9032L27.9149 72.2071L26.3436 70.4824C25.8154 70.7105 25.1024 71.3946 24.4686 71.7652C19.9527 74.4448 14.3409 74.5446 9.81182 71.8222C9.12519 71.4089 8.41216 70.8245 7.87078 70.5395L6.20703 72.3924Z" fill="black"/>
<path d="M10.9043 67.2183L9.35938 68.943C10.4289 70.4823 14.6939 71.7081 17.0971 71.6938C20.0153 71.6938 23.1447 70.4823 24.848 68.9857L23.2107 67.1328C20.2529 69.0285 17.3348 69.8837 13.6772 68.5867C12.5548 68.2018 11.7097 67.5177 10.9043 67.2183Z" fill="black"/>
<path d="M16.0912 56.2873C12.2619 57.7126 14.0841 63.699 17.9002 62.516C19.2602 62.1026 20.4222 60.4065 19.9072 58.4395C19.5111 56.9857 17.9002 55.6174 16.0912 56.2873Z" fill="black"/>
<path d="M12.207 65.8209C13.8576 67.6881 19.1393 68.0016 21.9518 65.8637L20.2881 64.0107C17.7 65.2935 16.3928 65.0227 13.818 64.025L12.207 65.8209Z" fill="black"/>
<path d="M29.347 52.5956C27.5908 52.8806 25.1216 52.4531 23.3126 52.2678C18.9024 51.8259 14.7298 51.8829 10.346 52.282C9.25002 52.396 7.6523 52.6098 6.23944 52.6811L3.44012 53.3938C2.64787 53.6076 1.2218 54.1492 0.416332 53.7929C-0.666422 58.8813 0.389928 64.3545 3.26847 68.6732C3.74383 69.3716 4.2852 69.9275 4.65492 70.5832C5.24912 70.2839 6.21303 69.1436 6.54314 68.659C5.83011 67.9036 2.38378 63.428 3.86266 61.5038C5.20951 59.7364 9.4877 61.8174 11.059 63.6989L12.8944 61.8032C12.736 61.0193 12.2738 60.4634 12.2342 59.3089C12.1946 58.2826 12.4059 57.4844 12.8152 56.7005C14.545 53.3795 18.9156 53.5078 20.5925 56.501C21.6621 58.3967 21.3188 59.8077 20.6189 61.6606L22.5468 63.7559C26.5609 59.0808 34.4967 59.6652 27.1155 68.659C27.3796 68.9726 27.6568 69.2291 27.9341 69.5712C28.1982 69.8848 28.4887 70.3266 28.6736 70.5974C29.1489 70.4406 29.0565 70.5974 29.5715 69.8135C30.3241 68.6447 30.5222 68.7587 31.5257 66.7775C33.7572 62.4161 34.259 57.3989 32.9914 52.7239C32.2916 53.2798 31.2484 52.9804 30.4694 52.8236L29.347 52.5956Z" fill="black"/>
<path d="M1.0314 53.0954C1.3351 53.3092 3.01205 52.7676 3.461 52.6536L8.32019 51.3993C10.9611 50.8007 9.69344 49.2898 10.0764 46.8953C10.3537 45.1136 13.9716 44.9569 15.2261 44.7431L16.9954 44.6718C18.6724 44.686 20.1909 44.7003 21.9074 45.2561C23.2015 45.6695 23.3467 46.3822 23.3731 47.4227C23.4523 50.3161 23.1883 50.5726 26.0404 51.0857L30.8996 52.055C32.8538 52.4683 33.6065 52.6536 31.9031 48.791C29.8168 44.0446 25.6971 40.3958 21.0228 39.1415C18.7516 38.5429 15.9655 38.3861 13.6547 38.942C8.82195 40.0965 4.84745 43.0469 2.36504 47.8503C1.96891 48.6342 0.159917 52.4968 1.0314 53.0954Z" fill="black"/>
<path fill-rule="evenodd" clip-rule="evenodd" d="M46.5032 39.6773V8.3479C46.5032 7.51103 46.796 6.72757 47.3816 5.99753C47.9589 5.25859 48.6517 4.73333 49.46 4.42172V4.11457H47.0847C46.2186 4.11457 45.1712 4.34159 43.9423 4.79564L43.1628 0.348633H58.714C61.9471 0.348633 64.3719 1.98676 65.9885 5.26304C67.5968 8.53932 68.401 13.3692 68.401 19.7526C68.401 33.0357 64.9946 39.6773 58.182 39.6773H46.5032ZM50.7961 76.3485V57.9595C50.7961 57.0336 50.5033 56.2724 49.9178 55.6759C49.3239 55.0883 48.5899 54.7945 47.7156 54.7945C46.8413 54.7945 46.1444 55.0883 45.6248 55.6759C45.1052 56.2724 44.8454 57.0336 44.8454 57.9595V76.3485H38.7957V54.6876C38.7957 53.9754 38.7338 53.3789 38.6101 52.8982C38.4946 52.4174 38.3544 51.9634 38.1895 51.536H44.6969L44.8454 54.5274L46.4537 52.3907C46.8908 51.8209 47.328 51.536 47.7651 51.536H53.221C54.3922 51.536 55.3077 51.8743 55.9675 52.5509C56.619 53.2276 56.9448 54.1001 56.9448 55.1684V76.3485H50.7961ZM97.8702 76.3485V54.6876C97.8702 53.8686 97.6681 52.8181 97.264 51.536H104.167V76.3485H97.8702ZM104.736 44.4315C104.736 45.4642 104.365 46.31 103.623 46.9688C102.881 47.6276 102.023 47.957 101.05 47.957C100.076 47.957 99.2104 47.6276 98.4516 46.9688C97.6928 46.31 97.3134 45.4642 97.3134 44.4315C97.3134 43.47 97.6928 42.6554 98.4516 41.9876C99.2104 41.3288 100.076 40.9994 101.05 40.9994C102.023 40.9994 102.881 41.3288 103.623 41.9876C104.365 42.6554 104.736 43.47 104.736 44.4315ZM108.114 76.3485V54.6342C108.114 53.6371 107.895 52.6044 107.458 51.536H114.015L114.213 54.4206L116.131 52.5509C116.741 51.8743 117.467 51.536 118.308 51.536H120.671C121.38 51.536 121.921 51.6874 122.292 51.9901C122.663 52.2928 122.881 52.64 122.947 53.0317L119.817 57.9061C119.578 56.2234 118.638 55.3821 116.997 55.3821C116.188 55.3821 115.524 55.6581 115.005 56.2101C114.477 56.771 114.213 57.4965 114.213 58.3868V76.3485H108.114ZM132.177 76.3485C130.601 76.3485 129.249 76.0458 128.119 75.4404C126.997 74.835 126.082 73.9714 125.372 72.8496C124.663 71.7279 124.139 70.3613 123.801 68.7498C123.471 67.1473 123.306 65.3667 123.306 63.4081C123.306 61.0221 123.508 59.0278 123.912 57.4253C124.317 55.8139 124.939 54.5452 125.781 53.6193C126.614 52.6934 127.653 52.0346 128.898 51.6428C130.144 51.2511 131.608 51.0553 133.29 51.0553C134.808 51.0553 136.127 51.2689 137.249 51.6963C138.379 52.1236 139.319 52.818 140.07 53.7795C140.829 54.7411 141.394 56.0187 141.765 57.6123C142.136 59.197 142.321 61.1289 142.321 63.4081H129.455C129.488 65.2243 129.575 66.8001 129.715 68.1355C129.847 69.4799 130.115 70.5794 130.519 71.4341C130.923 72.2888 131.521 72.9209 132.313 73.3304C133.096 73.7399 134.181 73.9447 135.566 73.9447C136.507 73.9447 138.086 73.7844 140.305 73.4639L140.812 76.3485H132.177ZM136.061 60.203C136.061 59.4196 136.024 58.6272 135.95 57.8259C135.884 57.0247 135.727 56.2991 135.48 55.6492C135.224 55.0081 134.87 54.4829 134.416 54.0734C133.962 53.6638 133.364 53.4591 132.622 53.4591C131.55 53.4591 130.754 54.0466 130.234 55.2218C129.706 56.4059 129.443 58.0663 129.443 60.203H136.061ZM87.6883 76.3485V57.8526H77.3828V76.3485H71.1227C71.1227 56.17 71.3825 37.5673 71.3825 18.4438C71.3825 17.4645 71.1722 16.454 70.7516 15.4124H77.0487L77.2343 18.2302L79.0777 16.4006C79.6633 15.7418 80.3602 15.4124 81.1685 15.4124H83.4449C84.1212 15.4124 84.6367 15.5593 84.9913 15.8531C85.346 16.1469 85.5563 16.4852 85.6223 16.868L82.616 21.6355C82.3933 19.9974 81.4901 19.1783 79.9066 19.1783C79.1313 19.1783 78.4921 19.4454 77.989 19.9796C77.4858 20.5227 77.2343 21.2304 77.2343 22.1029C77.2343 32.7864 77.3828 43.1094 77.3828 53.833H87.6883V41.1463C87.6883 38.235 87.8986 35.3505 87.8986 32.4793V18.3637C87.8986 17.5624 87.6017 16.6677 87.2182 15.4124H93.8618C93.8618 35.7378 93.8989 55.9964 93.8989 76.3485H87.6883ZM56.6479 35.5375C57.5469 35.5375 58.3387 35.2615 59.0233 34.7095C59.6996 34.1486 60.2646 33.2405 60.7182 31.9852C61.1636 30.7299 61.5017 29.1006 61.7327 27.0975C61.9553 25.0943 62.0667 22.646 62.0667 19.7526C62.0667 16.7879 61.9141 14.2951 61.6089 12.2741C61.3038 10.2531 60.8501 8.63726 60.2481 7.42646C59.6542 6.22457 58.9037 5.36543 57.9964 4.84906C57.0974 4.32378 56.0499 4.06114 54.854 4.06114H52.5777V35.5375H56.6479ZM94.3814 8.45474C94.3814 9.46077 94.0267 10.2887 93.3174 10.9387C92.6081 11.5797 91.7833 11.9002 90.8431 11.9002C89.9111 11.9002 89.0822 11.5797 88.3564 10.9387C87.6306 10.2887 87.2677 9.46077 87.2677 8.45474C87.2677 7.51103 87.6306 6.71867 88.3564 6.07765C89.0822 5.42774 89.9111 5.10279 90.8431 5.10279C91.7833 5.10279 92.6081 5.42774 93.3174 6.07765C94.0267 6.71867 94.3814 7.51103 94.3814 8.45474ZM103.487 39.6773L97.7712 18.9112C97.6145 18.3504 97.4042 17.7939 97.1402 17.2419C96.8846 16.6811 96.5959 16.0712 96.2742 15.4124H103.004L107.025 30.7833L110.514 18.9112C110.811 17.9675 110.959 16.957 110.959 15.8798V15.4124H114.584L107.656 39.6773H103.487ZM123.64 39.6773C122.123 39.6773 120.824 39.3791 119.743 38.7826C118.663 38.1861 117.784 37.3403 117.108 36.2452C116.423 35.1502 115.92 33.8192 115.599 32.2523C115.277 30.6764 115.116 28.9315 115.116 27.0174C115.116 24.6848 115.31 22.7306 115.698 21.1548C116.085 19.5879 116.683 18.3504 117.492 17.4423C118.3 16.5431 119.302 15.8976 120.498 15.5059C121.694 15.123 123.096 14.9316 124.704 14.9316C126.164 14.9316 127.434 15.1408 128.515 15.5593C129.595 15.9777 130.498 16.6588 131.224 17.6025C131.95 18.5462 132.49 19.7926 132.845 21.3417C133.199 22.8908 133.377 24.7827 133.377 27.0174H121.03C121.063 28.7979 121.141 30.3426 121.265 31.6513C121.397 32.9511 121.657 34.0195 122.044 34.8564C122.432 35.6932 123.005 36.312 123.764 36.7127C124.523 37.1133 125.566 37.3136 126.894 37.3136C127.793 37.3136 129.311 37.1578 131.447 36.8462L131.929 39.6773H123.64ZM127.364 23.8791C127.364 23.1134 127.335 22.3389 127.278 21.5554C127.212 20.772 127.055 20.0642 126.807 19.432C126.568 18.8088 126.23 18.2969 125.793 17.8963C125.356 17.4957 124.783 17.2953 124.073 17.2953C123.042 17.2953 122.275 17.8696 121.772 19.0181C121.269 20.1665 121.017 21.7869 121.017 23.8791H127.364ZM136.185 39.6773V18.4438C136.185 17.4645 135.975 16.454 135.554 15.4124H141.851L142.049 18.2302L143.893 16.4006C144.47 15.7418 145.163 15.4124 145.971 15.4124H148.247C148.932 15.4124 149.452 15.5593 149.806 15.8531C150.161 16.1469 150.371 16.4852 150.437 16.868L147.431 21.6355C147.2 19.9974 146.293 19.1783 144.709 19.1783C143.934 19.1783 143.299 19.4454 142.804 19.9796C142.301 20.5227 142.049 21.2304 142.049 22.1029V39.6773H136.185Z" fill="black"/>
<path d="M74.1914 31.4111H75.2801V26.1094H74.1914V31.4111Z" fill="white"/>
<path d="M91.1426 31.4111H92.2313V26.1094H91.1426V31.4111Z" fill="white"/>
<path d="M91.1426 69.0709H92.2313V63.7559H91.1426V69.0709Z" fill="white"/>
<path d="M92.2313 75.3336V70.0186H91.1426V75.3336H92.2313Z" fill="white"/>
<path d="M74.1914 75.3336H75.2801V70.0186H74.1914V75.3336Z" fill="white"/>
<path d="M74.1914 24.8031V24.8165C74.1914 25.0835 74.2656 25.1637 74.5131 25.1637H75.2801V19.8486H74.1914V24.8031Z" fill="white"/>
<path d="M91.1426 24.8031C91.1426 25.0835 91.2168 25.1637 91.4642 25.1637H92.2313V19.8486H91.1426V24.8031Z" fill="white"/>
<path d="M74.1914 32.7199V37.6744H75.2801V32.3594H74.5131C74.2656 32.3594 74.1914 32.4395 74.1914 32.7066V32.7199Z" fill="white"/>
<path d="M91.1426 32.7199V37.6744H92.2313V32.3594H91.4642C91.2168 32.3594 91.1426 32.4395 91.1426 32.7199Z" fill="white"/>
<path d="M74.1914 62.4623V62.4756C74.1914 62.7427 74.2656 62.8229 74.5131 62.8229H75.2801V57.5078H74.1914V62.4623Z" fill="white"/>
<path d="M74.1914 68.7237V68.737C74.1914 68.9908 74.2656 69.0709 74.5131 69.0709H75.2801V63.7559H74.1914V68.7237Z" fill="white"/>
<path d="M74.1914 56.2091C74.1914 56.7299 75.2801 56.7299 75.2801 56.2091V51.2412H74.1914V56.2091Z" fill="white"/>
<path d="M91.1426 56.2091C91.1426 56.7299 92.2313 56.7299 92.2313 56.2091V51.2412H91.1426V56.2091Z" fill="white"/>
<path d="M91.1426 62.4623C91.1426 62.9964 92.2313 62.9964 92.2313 62.4623V57.5078H91.1426V62.4623Z" fill="white"/>
<path d="M74.1914 38.9707V43.9252H75.2801V38.9707C75.2801 38.4499 74.1914 38.4499 74.1914 38.9707Z" fill="white"/>
<path d="M91.1426 38.9707V43.9252H92.2313V38.9707C92.2313 38.4499 91.1426 38.4499 91.1426 38.9707Z" fill="white"/>
<path d="M91.1426 50.188H92.2313V44.9932H91.1426V50.188Z" fill="white"/>
<path d="M92.2379 17.9648H91.1492C91.1492 18.6593 90.976 18.9264 91.6936 18.9264C92.0647 18.9264 92.2008 18.8596 92.2379 18.686V17.9648Z" fill="white"/>
<path d="M74.1914 18.3121V18.3521V18.3788V18.4055C74.1914 18.9664 74.2161 18.8997 74.9584 18.8997C75.3667 18.8997 75.2801 18.6326 75.2801 17.9648H74.4388C74.2656 17.9916 74.1914 18.085 74.1914 18.3121Z" fill="white"/>
<path d="M74.1914 50.188H75.2801V44.9932H74.1914V50.188Z" fill="white"/>
</svg>
