<svg width="36" height="16" viewBox="0 0 36 16" fill="none" xmlns="http://www.w3.org/2000/svg">
<path d="M7.71825 15.7083H3.57658V14.8714H5.22895C6.27331 12.3678 7.32483 9.89281 8.38349 7.44643C9.44216 4.98575 10.4937 2.5036 11.538 0C12.5824 2.5036 13.6268 4.98575 14.6711 7.44643C15.7298 9.89281 16.7885 12.3678 17.8471 14.8714H19.4995V15.7083H15.3793V14.8714H16.9458C16.5452 13.9272 16.1447 12.9901 15.7441 12.0602C15.3578 11.1303 14.9644 10.1932 14.5638 9.24903H8.51225C8.08306 10.2791 7.68964 11.2161 7.33198 12.0602C6.97432 12.9043 6.57375 13.8414 6.13025 14.8714H7.71825V15.7083ZM11.3234 2.57514C10.9372 3.54796 10.5294 4.52795 10.1003 5.51508C9.68537 6.48791 9.27764 7.45359 8.87706 8.41211H14.199L11.7312 2.57514L11.538 1.95281C11.5094 2.08157 11.4737 2.18887 11.4307 2.2747C11.4021 2.36054 11.3664 2.46069 11.3234 2.57514Z" fill="black"/>
<path d="M28.6739 14.7426C28.259 15.1146 27.7726 15.4007 27.2147 15.601C26.6567 15.787 26.0702 15.88 25.455 15.88C24.8971 15.88 24.3749 15.8228 23.8885 15.7083C23.4163 15.5939 23.0015 15.4437 22.6438 15.2577C22.2575 15.086 21.9285 14.9 21.6567 14.6997C21.3849 14.4851 21.1703 14.2848 21.0129 14.0989V11.8027H21.8713V13.7341C22.2575 14.0917 22.7368 14.3993 23.3091 14.6568C23.8813 14.9143 24.568 15.0431 25.3692 15.0431C25.8556 15.0431 26.3205 14.9644 26.764 14.807C27.2075 14.6497 27.6081 14.4351 27.9658 14.1632C28.2948 13.8771 28.5666 13.5338 28.7812 13.1332C28.9958 12.7183 29.1031 12.2605 29.1031 11.7598C29.1031 11.2591 29.0244 10.8227 28.8671 10.4508C28.724 10.0788 28.5165 9.77121 28.2447 9.528C27.9586 9.24187 27.6224 9.02013 27.2361 8.86276C26.8642 8.69108 26.4636 8.52656 26.0344 8.36919C25.5337 8.21182 25.0187 8.05445 24.4893 7.89708C23.9743 7.73971 23.5022 7.53942 23.073 7.29622C22.6295 7.0387 22.2647 6.7025 21.9786 6.28762C21.6924 5.87274 21.5351 5.31479 21.5065 4.61378C21.4922 4.14168 21.5494 3.66957 21.6781 3.19746C21.8212 2.71105 22.0501 2.2747 22.3648 1.88843C22.6796 1.50216 23.0873 1.19458 23.588 0.965676C24.0887 0.722469 24.6968 0.600865 25.4121 0.600865C25.6553 0.600865 25.92 0.615171 26.2061 0.643784C26.4922 0.672397 26.7855 0.722469 27.0859 0.794C27.372 0.865531 27.6653 0.979982 27.9658 1.13735C28.2805 1.28041 28.5738 1.45924 28.8456 1.67384V3.99146H27.9872V2.10303C27.7154 1.93135 27.3577 1.78114 26.9142 1.65238C26.4851 1.50932 25.9772 1.43778 25.3906 1.43778C24.8756 1.43778 24.4249 1.52362 24.0387 1.6953C23.6667 1.86697 23.3591 2.09587 23.1159 2.382C22.8727 2.66813 22.6867 2.99002 22.558 3.34768C22.4435 3.70533 22.3863 4.0773 22.3863 4.46357C22.3863 5.10735 22.5437 5.60807 22.8584 5.96573C23.1731 6.30908 23.5737 6.58805 24.0601 6.80265C24.6181 7.06016 25.2404 7.27476 25.9271 7.44643C26.6281 7.61811 27.2862 7.85416 27.9014 8.1546C28.4879 8.45503 28.9743 8.87706 29.3606 9.4207C29.7612 9.96434 29.9686 10.7297 29.9829 11.7169C29.9829 12.3463 29.8613 12.9186 29.6181 13.4336C29.3892 13.9486 29.0745 14.385 28.6739 14.7426Z" fill="black"/>
<rect width="35.7658" height="4.47072" transform="translate(0 6.25901)" fill="#9ADBFF"/>
<path d="M3.771 9.75901H3.105V9.52201H3.351C3.489 9.19201 3.627 8.86601 3.765 8.54401C3.905 8.22001 4.044 7.89301 4.182 7.56301C4.32 7.89301 4.458 8.22001 4.596 8.54401C4.736 8.86601 4.875 9.19201 5.013 9.52201H5.259V9.75901H4.593V9.52201H4.761C4.719 9.42201 4.677 9.32301 4.635 9.22501C4.595 9.12701 4.554 9.02801 4.512 8.92801H3.852C3.796 9.06001 3.754 9.15901 3.726 9.22501C3.698 9.29101 3.656 9.39001 3.6 9.52201H3.771V9.75901ZM4.149 8.21401C4.113 8.29201 4.078 8.37401 4.044 8.46001C4.012 8.54401 3.982 8.62101 3.954 8.69101H4.41L4.209 8.21401L4.179 8.11501C4.171 8.14701 4.164 8.17001 4.158 8.18401C4.154 8.19801 4.151 8.20801 4.149 8.21401ZM6.20726 9.75901H5.46926V9.52201H5.60426V7.89601H5.46926V7.65901H6.15326C6.25126 7.65901 6.34026 7.66901 6.42026 7.68901C6.50226 7.70901 6.57226 7.74001 6.63026 7.78201C6.68626 7.82401 6.73026 7.87901 6.76226 7.94701C6.79426 8.01301 6.81026 8.09201 6.81026 8.18401C6.81026 8.30801 6.78026 8.41701 6.72026 8.51101C6.66226 8.60501 6.57326 8.66901 6.45326 8.70301C6.50926 8.71501 6.56326 8.73501 6.61526 8.76301C6.66926 8.79101 6.71626 8.82701 6.75626 8.87101C6.79426 8.91501 6.82526 8.96601 6.84926 9.02401C6.87326 9.08201 6.88526 9.14701 6.88526 9.21901C6.88526 9.30901 6.86626 9.38801 6.82826 9.45601C6.79026 9.52201 6.74026 9.57701 6.67826 9.62101C6.61426 9.66701 6.54126 9.70201 6.45926 9.72601C6.37726 9.74801 6.29326 9.75901 6.20726 9.75901ZM5.85326 8.82001V9.52201H6.18626C6.24826 9.52201 6.30626 9.51501 6.36026 9.50101C6.41426 9.48701 6.46226 9.46501 6.50426 9.43501C6.54426 9.40701 6.57626 9.37201 6.60026 9.33001C6.62426 9.28801 6.63626 9.23801 6.63626 9.18001C6.63626 9.11801 6.62226 9.06401 6.59426 9.01801C6.56626 8.97201 6.53026 8.93401 6.48626 8.90401C6.44026 8.87601 6.38726 8.85501 6.32726 8.84101C6.26726 8.82701 6.20626 8.82001 6.14426 8.82001H5.85326ZM5.85326 7.89601V8.58301H6.17726C6.29526 8.58301 6.38826 8.55001 6.45626 8.48401C6.52626 8.41801 6.56126 8.33101 6.56126 8.22301C6.56126 8.16101 6.55026 8.10901 6.52826 8.06701C6.50826 8.02301 6.47926 7.98801 6.44126 7.96201C6.40726 7.94001 6.36726 7.92401 6.32126 7.91401C6.27526 7.90201 6.22526 7.89601 6.17126 7.89601H5.85326ZM7.82123 9.75901H7.09523V9.52201H7.33223V7.89601H7.09523V7.65901H7.82123V7.89601H7.58123V8.58301H8.71523V7.89601H8.47523V7.65901H9.20123V7.89601H8.96423V9.52201H9.20123V9.75901H8.47523V9.52201H8.71523V8.82001H7.58123V9.52201H7.82123V9.75901ZM10.1386 9.75901H9.41262V9.52201H9.64962V7.89601H9.41262V7.65901H10.1386V7.89601H9.89862V9.52201H10.1386V9.75901ZM11.4362 9.62701C11.3782 9.67701 11.3112 9.71601 11.2352 9.74401C11.1592 9.77001 11.0792 9.78301 10.9952 9.78301C10.9192 9.78301 10.8452 9.77501 10.7732 9.75901C10.7012 9.74101 10.6352 9.71801 10.5752 9.69001C10.5152 9.66201 10.4612 9.63001 10.4132 9.59401C10.3672 9.55801 10.3312 9.52001 10.3052 9.48001V9.13201H10.5422V9.39901C10.5942 9.43901 10.6562 9.47401 10.7282 9.50401C10.8002 9.53201 10.8812 9.54601 10.9712 9.54601C11.0232 9.54601 11.0732 9.53901 11.1212 9.52501C11.1692 9.50901 11.2122 9.48701 11.2502 9.45901C11.2862 9.42901 11.3152 9.39201 11.3372 9.34801C11.3592 9.30401 11.3702 9.25301 11.3702 9.19501C11.3702 9.15901 11.3672 9.12301 11.3612 9.08701C11.3572 9.05101 11.3472 9.02001 11.3312 8.99401C11.3052 8.95201 11.2742 8.91901 11.2382 8.89501C11.2042 8.86901 11.1642 8.84501 11.1182 8.82301C11.0462 8.79301 10.9682 8.76701 10.8842 8.74501C10.8002 8.72301 10.7222 8.69301 10.6502 8.65501C10.5762 8.61701 10.5142 8.56401 10.4642 8.49601C10.4162 8.42801 10.3912 8.33201 10.3892 8.20801C10.3872 8.14201 10.3962 8.07601 10.4162 8.01001C10.4362 7.94401 10.4692 7.88401 10.5152 7.83001C10.5612 7.77601 10.6222 7.73201 10.6982 7.69801C10.7742 7.66401 10.8672 7.64701 10.9772 7.64701C11.0132 7.64701 11.0522 7.64901 11.0942 7.65301C11.1362 7.65701 11.1802 7.66501 11.2262 7.67701C11.2722 7.68901 11.3192 7.70701 11.3672 7.73101C11.4172 7.75501 11.4662 7.78701 11.5142 7.82701V8.12101H11.2772V7.94401C11.2392 7.92801 11.1952 7.91401 11.1452 7.90201C11.0952 7.89001 11.0402 7.88401 10.9802 7.88401C10.9202 7.88401 10.8682 7.89401 10.8242 7.91401C10.7802 7.93201 10.7442 7.95701 10.7162 7.98901C10.6902 8.01901 10.6702 8.05401 10.6562 8.09401C10.6442 8.13201 10.6382 8.17301 10.6382 8.21701C10.6382 8.27701 10.6522 8.32601 10.6802 8.36401C10.7082 8.40001 10.7452 8.43101 10.7912 8.45701C10.8632 8.49501 10.9492 8.52901 11.0492 8.55901C11.1492 8.58701 11.2452 8.62301 11.3372 8.66701C11.4212 8.70701 11.4892 8.76901 11.5412 8.85301C11.5932 8.93701 11.6192 9.05201 11.6192 9.19801C11.6192 9.28801 11.6022 9.36901 11.5682 9.44101C11.5362 9.51301 11.4922 9.57501 11.4362 9.62701ZM12.5058 9.75901H11.7798V9.52201H12.0168V7.89601H11.7798V7.65901H12.5058V7.89601H12.2658V8.58301H13.3998V7.89601H13.1598V7.65901H13.8858V7.89601H13.6488V9.52201H13.8858V9.75901H13.1598V9.52201H13.3998V8.82001H12.2658V9.52201H12.5058V9.75901ZM15.6002 9.75901H14.0972V9.52201H14.2652V7.89601H14.0972V7.65901H15.5582V8.12101H15.3212V7.89601H14.5142V8.58301H15.4412V8.82001H14.5142V9.52201H15.3632V9.29701H15.6002V9.75901ZM16.5371 9.75901H15.8111V9.52201H16.0421V7.89601H15.8111V7.65901H16.4771V7.89601H16.2911V8.48101C16.2911 8.49701 16.2901 8.51301 16.2881 8.52901C16.2861 8.54501 16.2841 8.56101 16.2821 8.57701L16.3391 8.50801L16.9811 7.89601H16.8701V7.65901H17.5361V7.89601H17.2871L16.6421 8.51101C16.7761 8.68101 16.9091 8.85001 17.0411 9.01801C17.1751 9.18401 17.3091 9.35201 17.4431 9.52201H17.6591V9.75901H16.9931V9.52201H17.1491C17.0351 9.38001 16.9221 9.23901 16.8101 9.09901C16.7001 8.95701 16.5891 8.81401 16.4771 8.67001L16.2911 8.84701V9.52201H16.5371V9.75901ZM19.8561 9.62701C19.7981 9.67701 19.7311 9.71601 19.6551 9.74401C19.5791 9.77001 19.4991 9.78301 19.4151 9.78301C19.3391 9.78301 19.2651 9.77501 19.1931 9.75901C19.1211 9.74101 19.0551 9.71801 18.9951 9.69001C18.9351 9.66201 18.8811 9.63001 18.8331 9.59401C18.7871 9.55801 18.7511 9.52001 18.7251 9.48001V9.13201H18.9621V9.39901C19.0141 9.43901 19.0761 9.47401 19.1481 9.50401C19.2201 9.53201 19.3011 9.54601 19.3911 9.54601C19.4431 9.54601 19.4931 9.53901 19.5411 9.52501C19.5891 9.50901 19.6321 9.48701 19.6701 9.45901C19.7061 9.42901 19.7351 9.39201 19.7571 9.34801C19.7791 9.30401 19.7901 9.25301 19.7901 9.19501C19.7901 9.15901 19.7871 9.12301 19.7811 9.08701C19.7771 9.05101 19.7671 9.02001 19.7511 8.99401C19.7251 8.95201 19.6941 8.91901 19.6581 8.89501C19.6241 8.86901 19.5841 8.84501 19.5381 8.82301C19.4661 8.79301 19.3881 8.76701 19.3041 8.74501C19.2201 8.72301 19.1421 8.69301 19.0701 8.65501C18.9961 8.61701 18.9341 8.56401 18.8841 8.49601C18.8361 8.42801 18.8111 8.33201 18.8091 8.20801C18.8071 8.14201 18.8161 8.07601 18.8361 8.01001C18.8561 7.94401 18.8891 7.88401 18.9351 7.83001C18.9811 7.77601 19.0421 7.73201 19.1181 7.69801C19.1941 7.66401 19.2871 7.64701 19.3971 7.64701C19.4331 7.64701 19.4721 7.64901 19.5141 7.65301C19.5561 7.65701 19.6001 7.66501 19.6461 7.67701C19.6921 7.68901 19.7391 7.70701 19.7871 7.73101C19.8371 7.75501 19.8861 7.78701 19.9341 7.82701V8.12101H19.6971V7.94401C19.6591 7.92801 19.6151 7.91401 19.5651 7.90201C19.5151 7.89001 19.4601 7.88401 19.4001 7.88401C19.3401 7.88401 19.2881 7.89401 19.2441 7.91401C19.2001 7.93201 19.1641 7.95701 19.1361 7.98901C19.1101 8.01901 19.0901 8.05401 19.0761 8.09401C19.0641 8.13201 19.0581 8.17301 19.0581 8.21701C19.0581 8.27701 19.0721 8.32601 19.1001 8.36401C19.1281 8.40001 19.1651 8.43101 19.2111 8.45701C19.2831 8.49501 19.3691 8.52901 19.4691 8.55901C19.5691 8.58701 19.6651 8.62301 19.7571 8.66701C19.8411 8.70701 19.9091 8.76901 19.9611 8.85301C20.0131 8.93701 20.0391 9.05201 20.0391 9.19801C20.0391 9.28801 20.0221 9.36901 19.9881 9.44101C19.9561 9.51301 19.9121 9.57501 19.8561 9.62701ZM20.9257 9.75901H20.1997V9.52201H20.4367V7.89601H20.1997V7.65901H20.9257V7.89601H20.6857V8.58301H21.8197V7.89601H21.5797V7.65901H22.3057V7.89601H22.0687V9.52201H22.3057V9.75901H21.5797V9.52201H21.8197V8.82001H20.6857V9.52201H20.9257V9.75901ZM23.1831 9.75901H22.5171V9.52201H22.7631C22.9011 9.19201 23.0391 8.86601 23.1771 8.54401C23.3171 8.22001 23.4561 7.89301 23.5941 7.56301C23.7321 7.89301 23.8701 8.22001 24.0081 8.54401C24.1481 8.86601 24.2871 9.19201 24.4251 9.52201H24.6711V9.75901H24.0051V9.52201H24.1731C24.1311 9.42201 24.0891 9.32301 24.0471 9.22501C24.0071 9.12701 23.9661 9.02801 23.9241 8.92801H23.2641C23.2081 9.06001 23.1661 9.15901 23.1381 9.22501C23.1101 9.29101 23.0681 9.39001 23.0121 9.52201H23.1831V9.75901ZM23.5611 8.21401C23.5251 8.29201 23.4901 8.37401 23.4561 8.46001C23.4241 8.54401 23.3941 8.62101 23.3661 8.69101H23.8221L23.6211 8.21401L23.5911 8.11501C23.5831 8.14701 23.5761 8.17001 23.5701 8.18401C23.5661 8.19801 23.5631 8.20801 23.5611 8.21401ZM25.6074 9.75901H24.8814V9.52201H25.0164V7.89601H24.8814V7.65901H25.5114C25.5794 7.65901 25.6544 7.67001 25.7364 7.69201C25.8204 7.71201 25.8984 7.74501 25.9704 7.79101C26.0424 7.83701 26.1024 7.89601 26.1504 7.96801C26.1984 8.04001 26.2224 8.12701 26.2224 8.22901C26.2224 8.37901 26.1844 8.50401 26.1084 8.60401C26.0344 8.70401 25.9254 8.77001 25.7814 8.80201L26.1174 9.52201H26.3994V9.75901H25.9614L25.5204 8.82001C25.4924 8.82001 25.4704 8.82101 25.4544 8.82301C25.4404 8.82301 25.4194 8.82301 25.3914 8.82301H25.2654V9.52201H25.6074V9.75901ZM25.2654 7.89601V8.58301H25.5264C25.6144 8.58301 25.6864 8.57201 25.7424 8.55001C25.8004 8.52601 25.8464 8.49701 25.8804 8.46301C25.9144 8.42901 25.9384 8.39101 25.9524 8.34901C25.9664 8.30701 25.9734 8.26701 25.9734 8.22901C25.9734 8.18501 25.9614 8.14301 25.9374 8.10301C25.9154 8.06301 25.8854 8.02701 25.8474 7.99501C25.8074 7.96501 25.7594 7.94101 25.7034 7.92301C25.6494 7.90501 25.5914 7.89601 25.5294 7.89601H25.2654ZM27.3359 9.75901H26.6099V9.52201H26.8709V7.89601H26.6099V7.65901H26.9459C27.1179 7.88101 27.2879 8.10301 27.4559 8.32501C27.6259 8.54501 27.7969 8.76601 27.9689 8.98801C28.1409 8.76601 28.3109 8.54501 28.4789 8.32501C28.6489 8.10301 28.8199 7.88101 28.9919 7.65901H29.3279V7.89601H29.0669V9.52201H29.3279V9.75901H28.6019V9.52201H28.8179V8.34901C28.8199 8.33301 28.8209 8.31701 28.8209 8.30101C28.8229 8.28501 28.8249 8.26901 28.8269 8.25301C28.8109 8.27501 28.7949 8.29801 28.7789 8.32201C28.7629 8.34601 28.7469 8.36901 28.7309 8.39101L27.9689 9.38401L27.1739 8.34301C27.1599 8.32501 27.1479 8.31001 27.1379 8.29801C27.1299 8.28601 27.1209 8.27101 27.1109 8.25301C27.1129 8.26901 27.1149 8.28501 27.1169 8.30101C27.1189 8.31701 27.1199 8.33301 27.1199 8.34901V9.52201H27.3359V9.75901ZM30.2026 9.75901H29.5366V9.52201H29.7826C29.9206 9.19201 30.0586 8.86601 30.1966 8.54401C30.3366 8.22001 30.4756 7.89301 30.6136 7.56301C30.7516 7.89301 30.8896 8.22001 31.0276 8.54401C31.1676 8.86601 31.3066 9.19201 31.4446 9.52201H31.6906V9.75901H31.0246V9.52201H31.1926C31.1506 9.42201 31.1086 9.32301 31.0666 9.22501C31.0266 9.12701 30.9856 9.02801 30.9436 8.92801H30.2836C30.2276 9.06001 30.1856 9.15901 30.1576 9.22501C30.1296 9.29101 30.0876 9.39001 30.0316 9.52201H30.2026V9.75901ZM30.5806 8.21401C30.5446 8.29201 30.5096 8.37401 30.4756 8.46001C30.4436 8.54401 30.4136 8.62101 30.3856 8.69101H30.8416L30.6406 8.21401L30.6106 8.11501C30.6026 8.14701 30.5956 8.17001 30.5896 8.18401C30.5856 8.19801 30.5826 8.20801 30.5806 8.21401Z" fill="white"/>
</svg>
